<svg style="overflow: hidden; position: relative; top: -0.200195px;" xmlns:xlink="http://www.w3.org/1999/xlink" xmlns="http://www.w3.org/2000/svg" width="1499.5" version="1.1" height="480"><desc>Created with Raphaël 2.1.2</desc><defs><path id="raphael-marker-block" d="M5,0 0,2.5 5,5z" stroke-linecap="round"></path><marker refY="2.5" refX="2.5" orient="auto" markerWidth="5" markerHeight="5" id="raphael-marker-endblock55-obj26"><use stroke="none" fill="#000" stroke-width="1.0000" transform="rotate(180 2.5 2.5) scale(1,1)" xlink:href="#raphael-marker-block"></use></marker><marker refY="2.5" refX="2.5" orient="auto" markerWidth="5" markerHeight="5" id="raphael-marker-endblock55-obj29"><use stroke="none" fill="#000" stroke-width="1.0000" transform="rotate(180 2.5 2.5) scale(1,1)" xlink:href="#raphael-marker-block"></use></marker><marker refY="2.5" refX="2.5" orient="auto" markerWidth="5" markerHeight="5" id="raphael-marker-endblock55-obj35"><use stroke="none" fill="#000" stroke-width="1.0000" transform="rotate(180 2.5 2.5) scale(1,1)" xlink:href="#raphael-marker-block"></use></marker><marker refY="2.5" refX="2.5" orient="auto" markerWidth="5" markerHeight="5" id="raphael-marker-endblock55-obj41"><use stroke="none" fill="#000" stroke-width="1.0000" transform="rotate(180 2.5 2.5) scale(1,1)" xlink:href="#raphael-marker-block"></use></marker><marker refY="2.5" refX="2.5" orient="auto" markerWidth="5" markerHeight="5" id="raphael-marker-endblock55-obj44"><use stroke="none" fill="#000" stroke-width="1.0000" transform="rotate(180 2.5 2.5) scale(1,1)" xlink:href="#raphael-marker-block"></use></marker><marker refY="2.5" refX="2.5" orient="auto" markerWidth="5" markerHeight="5" id="raphael-marker-endblock55-obj47"><use stroke="none" fill="#000" stroke-width="1.0000" transform="rotate(180 2.5 2.5) scale(1,1)" xlink:href="#raphael-marker-block"></use></marker></defs><rect stroke-width="2" style="" stroke="#000000" fill="none" ry="0" rx="0" height="40" width="84" y="20" x="281"></rect><rect style="" stroke="none" fill="#ffffff" ry="0" rx="0" height="20" width="64" y="30" x="291"></rect><text fill="#000000" stroke="none" font-size="16px" font-family="Andale Mono, monospace" text-anchor="middle" y="40" x="323" style="text-anchor: middle; font-family: Andale Mono,monospace; font-size: 16px;"><tspan dy="5">Calling AE</tspan></text><rect stroke-width="2" style="" stroke="#000000" fill="none" ry="0" rx="0" height="40" width="84" y="420" x="281"></rect><rect style="" stroke="none" fill="#ffffff" ry="0" rx="0" height="20" width="64" y="430" x="291"></rect><text fill="#000000" stroke="none" font-size="16px" font-family="Andale Mono, monospace" text-anchor="middle" y="440" x="323" style="text-anchor: middle; font-family: Andale Mono,monospace; font-size: 16px;"><tspan dy="5">Calling AE</tspan></text><path stroke-width="2" d="M323,60L323,420" stroke="#000000" fill="none" style=""></path><rect stroke-width="2" style="" stroke="#000000" fill="none" ry="0" rx="0" height="40" width="79" y="20" x="1164.5"></rect><rect style="" stroke="none" fill="#ffffff" ry="0" rx="0" height="20" width="59" y="30" x="1174.5"></rect><text fill="#000000" stroke="none" font-size="16px" font-family="Andale Mono, monospace" text-anchor="middle" y="40" x="1204" style="text-anchor: middle; font-family: Andale Mono,monospace; font-size: 16px;"><tspan dy="5">Called AE</tspan></text><rect stroke-width="2" style="" stroke="#000000" fill="none" ry="0" rx="0" height="40" width="79" y="420" x="1164.5"></rect><rect style="" stroke="none" fill="#ffffff" ry="0" rx="0" height="20" width="59" y="430" x="1174.5"></rect><text fill="#000000" stroke="none" font-size="16px" font-family="Andale Mono, monospace" text-anchor="middle" y="440" x="1204" style="text-anchor: middle; font-family: Andale Mono,monospace; font-size: 16px;"><tspan dy="5">Called AE</tspan></text><path stroke-width="2" d="M1204,60L1204,420" stroke="#000000" fill="none" style=""></path><rect style="" stroke="none" fill="#ffffff" ry="0" rx="0" height="20" width="249" y="75" x="639"></rect><text fill="#000000" stroke="none" font-size="16px" font-family="Andale Mono, monospace" text-anchor="middle" y="85" x="763.5" style="text-anchor: middle; font-family: Andale Mono,monospace; font-size: 16px;"><tspan dy="5">Hi, I'm Calling AE. Do you speak DICOM?</tspan></text><path stroke-dasharray="0" marker-end="url(#raphael-marker-endblock55-obj26)" stroke-width="2" d="M323,100C323,100,1127.8585191369057,100,1198.99103474422,100" stroke="#000000" fill="none" style=""></path><rect style="" stroke="none" fill="#ffffff" ry="0" rx="0" height="20" width="159" y="115" x="684"></rect><text fill="#000000" stroke="none" font-size="16px" font-family="Andale Mono, monospace" text-anchor="middle" y="125" x="763.5" style="text-anchor: middle; font-family: Andale Mono,monospace; font-size: 16px;"><tspan dy="5">Hi, I'm Called AE. Yes I do.</tspan></text><path stroke-dasharray="0" marker-end="url(#raphael-marker-endblock55-obj29)" stroke-width="2" d="M1204,140C1204,140,399.14148086309433,140,328.0089652557799,140" stroke="#000000" fill="none" style=""></path><rect stroke-width="2" style="" stroke="#000000" fill="none" ry="0" rx="0" height="30" width="283" y="160" x="20"></rect><rect style="" stroke="none" fill="#ffffff" ry="0" rx="0" height="20" width="273" y="165" x="25"></rect><text fill="#000000" stroke="none" font-size="16px" font-family="Andale Mono, monospace" text-anchor="middle" y="175" x="161.5" style="text-anchor: middle; font-family: Andale Mono,monospace; font-size: 16px;"><tspan dy="5">Make offer with abstract and transfer syntax</tspan></text><rect style="" stroke="none" fill="#ffffff" ry="0" rx="0" height="20" width="861" y="205" x="333"></rect><text fill="#000000" stroke="none" font-size="16px" font-family="Andale Mono, monospace" text-anchor="middle" y="215" x="763.5" style="text-anchor: middle; font-family: Andale Mono,monospace; font-size: 16px;"><tspan dy="5">I have 92 new MR uncompressed images I want to send as is. I can also send them to you in JPEG2000 or compressed by 12-bit lossless JPEG.</tspan></text><path stroke-dasharray="0" marker-end="url(#raphael-marker-endblock55-obj35)" stroke-width="2" d="M323,230C323,230,1127.8585191369057,230,1198.99103474422,230" stroke="#000000" fill="none" style=""></path><rect stroke-width="2" style="" stroke="#000000" fill="none" ry="0" rx="0" height="30" width="186" y="250" x="1224"></rect><rect style="" stroke="none" fill="#ffffff" ry="0" rx="0" height="20" width="176" y="255" x="1229"></rect><text fill="#000000" stroke="none" font-size="16px" font-family="Andale Mono, monospace" text-anchor="middle" y="265" x="1317" style="text-anchor: middle; font-family: Andale Mono,monospace; font-size: 16px;"><tspan dy="5">Agree on compatible syntax.</tspan></text><rect style="" stroke="none" fill="#ffffff" ry="0" rx="0" height="20" width="376" y="295" x="575.5"></rect><text fill="#000000" stroke="none" font-size="16px" font-family="Andale Mono, monospace" text-anchor="middle" y="305" x="763.5" style="text-anchor: middle; font-family: Andale Mono,monospace; font-size: 16px;"><tspan dy="5">OK, I can take these images, but I prefer them uncompressed.</tspan></text><path stroke-dasharray="0" marker-end="url(#raphael-marker-endblock55-obj41)" stroke-width="2" d="M1204,320C1204,320,399.14148086309433,320,328.0089652557799,320" stroke="#000000" fill="none" style=""></path><rect style="" stroke="none" fill="#ffffff" ry="0" rx="0" height="20" width="127" y="335" x="700"></rect><text fill="#000000" stroke="none" font-size="16px" font-family="Andale Mono, monospace" text-anchor="middle" y="345" x="763.5" style="text-anchor: middle; font-family: Andale Mono,monospace; font-size: 16px;"><tspan dy="5">OK, starting to send.</tspan></text><path stroke-dasharray="0" marker-end="url(#raphael-marker-endblock55-obj44)" stroke-width="2" d="M323,360C323,360,1127.8585191369057,360,1198.99103474422,360" stroke="#000000" fill="none" style=""></path><rect style="" stroke="none" fill="#ffffff" ry="0" rx="0" height="20" width="128" y="375" x="699.5"></rect><text fill="#000000" stroke="none" font-size="16px" font-family="Andale Mono, monospace" text-anchor="middle" y="385" x="763.5" style="text-anchor: middle; font-family: Andale Mono,monospace; font-size: 16px;"><tspan dy="5">OK, ready to receive.</tspan></text><path stroke-dasharray="0" marker-end="url(#raphael-marker-endblock55-obj47)" stroke-width="2" d="M1204,400C1204,400,399.14148086309433,400,328.0089652557799,400" stroke="#000000" fill="none" style=""></path></svg>
