<svg style="overflow: hidden; position: relative; top: -0.366699px;" xmlns:xlink="http://www.w3.org/1999/xlink" xmlns="http://www.w3.org/2000/svg" width="577.5" version="1.1" height="220"><desc>Created with Raphaël 2.1.2</desc><defs><marker refY="2.5" refX="2.5" orient="auto" markerWidth="5" markerHeight="5" id="raphael-marker-endblock55-obj136"><use stroke="none" fill="#000" stroke-width="1.0000" transform="rotate(180 2.5 2.5) scale(1,1)" xlink:href="#raphael-marker-block"></use></marker><marker refY="2.5" refX="2.5" orient="auto" markerWidth="5" markerHeight="5" id="raphael-marker-endblock55-obj139"><use stroke="none" fill="#000" stroke-width="1.0000" transform="rotate(180 2.5 2.5) scale(1,1)" xlink:href="#raphael-marker-block"></use></marker></defs><rect stroke-width="2" style="" stroke="#000000" fill="none" ry="0" rx="0" height="40" width="180" y="20" x="10"></rect><rect style="" stroke="none" fill="#ffffff" ry="0" rx="0" height="20" width="160" y="30" x="20"></rect><text fill="#000000" stroke="none" font-size="16px" font-family="Andale Mono, monospace" text-anchor="middle" y="40" x="100" style="text-anchor: middle; font-family: Andale Mono,monospace; font-size: 16px;"><tspan dy="5">Requesting AE (EchoSCU)</tspan></text><rect stroke-width="2" style="" stroke="#000000" fill="none" ry="0" rx="0" height="40" width="180" y="160" x="10"></rect><rect style="" stroke="none" fill="#ffffff" ry="0" rx="0" height="20" width="160" y="170" x="20"></rect><text fill="#000000" stroke="none" font-size="16px" font-family="Andale Mono, monospace" text-anchor="middle" y="180" x="100" style="text-anchor: middle; font-family: Andale Mono,monospace; font-size: 16px;"><tspan dy="5">Requesting AE (EchoSCU)</tspan></text><path stroke-width="2" d="M100,60L100,160" stroke="#000000" fill="none" style=""></path><rect stroke-width="2" style="" stroke="#000000" fill="none" ry="0" rx="0" height="40" width="183" y="20" x="364.5"></rect><rect style="" stroke="none" fill="#ffffff" ry="0" rx="0" height="20" width="163" y="30" x="374.5"></rect><text fill="#000000" stroke="none" font-size="16px" font-family="Andale Mono, monospace" text-anchor="middle" y="40" x="456" style="text-anchor: middle; font-family: Andale Mono,monospace; font-size: 16px;"><tspan dy="5">Responding AE (EchoSCP)</tspan></text><rect stroke-width="2" style="" stroke="#000000" fill="none" ry="0" rx="0" height="40" width="183" y="160" x="364.5"></rect><rect style="" stroke="none" fill="#ffffff" ry="0" rx="0" height="20" width="163" y="170" x="374.5"></rect><text fill="#000000" stroke="none" font-size="16px" font-family="Andale Mono, monospace" text-anchor="middle" y="180" x="456" style="text-anchor: middle; font-family: Andale Mono,monospace; font-size: 16px;"><tspan dy="5">Responding AE (EchoSCP)</tspan></text><path stroke-width="2" d="M456,60L456,160" stroke="#000000" fill="none" style=""></path><rect style="" stroke="none" fill="#ffffff" ry="0" rx="0" height="20" width="321" y="75" x="117.5"></rect><text fill="#000000" stroke="none" font-size="16px" font-family="Andale Mono, monospace" text-anchor="middle" y="85" x="278" style="text-anchor: middle; font-family: Andale Mono,monospace; font-size: 16px;"><tspan dy="5">CEchoRequest: Odil's implementation of C-Echo-Rq</tspan></text><path stroke-dasharray="0" marker-end="url(#raphael-marker-endblock55-obj136)" stroke-width="2" d="M100,100C100,100,407.8591368198395,100,451.0015060909791,100" stroke="#000000" fill="none" style=""></path><rect style="" stroke="none" fill="#ffffff" ry="0" rx="0" height="20" width="336" y="115" x="110"></rect><text fill="#000000" stroke="none" font-size="16px" font-family="Andale Mono, monospace" text-anchor="middle" y="125" x="278" style="text-anchor: middle; font-family: Andale Mono,monospace; font-size: 16px;"><tspan dy="5">CEchoResponse: Odil's implementation of C-Echo-Rsp</tspan></text><path stroke-dasharray="0" marker-end="url(#raphael-marker-endblock55-obj139)" stroke-width="2" d="M456,140C456,140,148.14086318016052,140,104.99849390902091,140" stroke="#000000" fill="none" style=""></path></svg>
