<svg style="overflow: hidden; position: relative; top: -0.299805px;" xmlns:xlink="http://www.w3.org/1999/xlink" xmlns="http://www.w3.org/2000/svg" width="216.5" version="1.1" height="250"><desc>Created with Raphaël 2.1.2</desc><defs><marker refY="2.5" refX="2.5" orient="auto" markerWidth="5" markerHeight="5" id="raphael-marker-endblock55-obj164"><use stroke="none" fill="#000" stroke-width="1.0000" transform="rotate(180 2.5 2.5) scale(1,1)" xlink:href="#raphael-marker-block"></use></marker><marker refY="2.5" refX="2.5" orient="auto" markerWidth="5" markerHeight="5" id="raphael-marker-endblock55-obj167"><use stroke="none" fill="#000" stroke-width="1.0000" transform="rotate(180 2.5 2.5) scale(1,1)" xlink:href="#raphael-marker-block"></use></marker></defs><rect stroke-width="2" style="" stroke="#000000" fill="none" ry="0" rx="0" height="30" width="168" y="10" x="10"></rect><rect style="" stroke="none" fill="#ffffff" ry="0" rx="0" height="20" width="158" y="15" x="15"></rect><text fill="#000000" stroke="none" font-size="16px" font-family="Andale Mono, monospace" text-anchor="middle" y="25" x="94" style="text-anchor: middle; font-family: Andale Mono,monospace; font-size: 16px;"><tspan dy="5">C-GET Sequence diagram</tspan></text><rect stroke-width="2" style="" stroke="#000000" fill="none" ry="0" rx="0" height="40" width="67" y="50" x="10"></rect><rect style="" stroke="none" fill="#ffffff" ry="0" rx="0" height="20" width="47" y="60" x="20"></rect><text fill="#000000" stroke="none" font-size="16px" font-family="Andale Mono, monospace" text-anchor="middle" y="70" x="43.5" style="text-anchor: middle; font-family: Andale Mono,monospace; font-size: 16px;"><tspan dy="5">GetSCP</tspan></text><rect stroke-width="2" style="" stroke="#000000" fill="none" ry="0" rx="0" height="40" width="67" y="190" x="10"></rect><rect style="" stroke="none" fill="#ffffff" ry="0" rx="0" height="20" width="47" y="200" x="20"></rect><text fill="#000000" stroke="none" font-size="16px" font-family="Andale Mono, monospace" text-anchor="middle" y="210" x="43.5" style="text-anchor: middle; font-family: Andale Mono,monospace; font-size: 16px;"><tspan dy="5">GetSCP</tspan></text><path stroke-width="2" d="M43.5,90L43.5,190" stroke="#000000" fill="none" style=""></path><rect stroke-width="2" style="" stroke="#000000" fill="none" ry="0" rx="0" height="40" width="68" y="50" x="118.5"></rect><rect style="" stroke="none" fill="#ffffff" ry="0" rx="0" height="20" width="48" y="60" x="128.5"></rect><text fill="#000000" stroke="none" font-size="16px" font-family="Andale Mono, monospace" text-anchor="middle" y="70" x="152.5" style="text-anchor: middle; font-family: Andale Mono,monospace; font-size: 16px;"><tspan dy="5">GetSCU</tspan></text><rect stroke-width="2" style="" stroke="#000000" fill="none" ry="0" rx="0" height="40" width="68" y="190" x="118.5"></rect><rect style="" stroke="none" fill="#ffffff" ry="0" rx="0" height="20" width="48" y="200" x="128.5"></rect><text fill="#000000" stroke="none" font-size="16px" font-family="Andale Mono, monospace" text-anchor="middle" y="210" x="152.5" style="text-anchor: middle; font-family: Andale Mono,monospace; font-size: 16px;"><tspan dy="5">GetSCU</tspan></text><path stroke-width="2" d="M152.5,90L152.5,190" stroke="#000000" fill="none" style=""></path><rect style="" stroke="none" fill="#ffffff" ry="0" rx="0" height="20" width="80" y="105" x="58"></rect><text fill="#000000" stroke="none" font-size="16px" font-family="Andale Mono, monospace" text-anchor="middle" y="115" x="98" style="text-anchor: middle; font-family: Andale Mono,monospace; font-size: 16px;"><tspan dy="5">CGetRequest</tspan></text><path stroke-dasharray="0" marker-end="url(#raphael-marker-endblock55-obj164)" stroke-width="2" d="M43.5,130C43.5,130,126.11697316169739,130,147.49734219280072,130" stroke="#000000" fill="none" style=""></path><rect style="" stroke="none" fill="#ffffff" ry="0" rx="0" height="20" width="89" y="145" x="53.5"></rect><text fill="#000000" stroke="none" font-size="16px" font-family="Andale Mono, monospace" text-anchor="middle" y="155" x="98" style="text-anchor: middle; font-family: Andale Mono,monospace; font-size: 16px;"><tspan dy="5">CGetResponse</tspan></text><path stroke-dasharray="0" marker-end="url(#raphael-marker-endblock55-obj167)" stroke-width="2" d="M152.5,170C152.5,170,69.88302683830261,170,48.502657807199284,170" stroke="#000000" fill="none" style=""></path></svg>

