<svg style="overflow: hidden; position: relative; top: -0.0834961px;" xmlns:xlink="http://www.w3.org/1999/xlink" xmlns="http://www.w3.org/2000/svg" width="1008.5" version="1.1" height="710"><desc>Created with Raphaël 2.1.2</desc><defs><marker refY="2.5" refX="2.5" orient="auto" markerWidth="5" markerHeight="5" id="raphael-marker-endblock55-obj79"><use stroke="none" fill="#000" stroke-width="1.0000" transform="rotate(180 2.5 2.5) scale(1,1)" xlink:href="#raphael-marker-block"></use></marker><path id="raphael-marker-open" d="M6,1 1,3.5 6,6" stroke-linecap="round"></path><marker refY="3.5" refX="4" orient="auto" markerWidth="7" markerHeight="7" id="raphael-marker-endopen77-obj88"><use stroke="#000" fill="none" stroke-width="1.0000" transform="rotate(180 3.5 3.5) scale(1,1)" xlink:href="#raphael-marker-open"></use></marker><marker refY="2.5" refX="2.5" orient="auto" markerWidth="5" markerHeight="5" id="raphael-marker-endblock55-obj91"><use stroke="none" fill="#000" stroke-width="1.0000" transform="rotate(180 2.5 2.5) scale(1,1)" xlink:href="#raphael-marker-block"></use></marker><marker refY="2.5" refX="2.5" orient="auto" markerWidth="5" markerHeight="5" id="raphael-marker-endblock55-obj97"><use stroke="none" fill="#000" stroke-width="1.0000" transform="rotate(180 2.5 2.5) scale(1,1)" xlink:href="#raphael-marker-block"></use></marker><marker refY="2.5" refX="2.5" orient="auto" markerWidth="5" markerHeight="5" id="raphael-marker-endblock55-obj103"><use stroke="none" fill="#000" stroke-width="1.0000" transform="rotate(180 2.5 2.5) scale(1,1)" xlink:href="#raphael-marker-block"></use></marker><marker refY="3.5" refX="4" orient="auto" markerWidth="7" markerHeight="7" id="raphael-marker-endopen77-obj106"><use stroke="#000" fill="none" stroke-width="1.0000" transform="rotate(180 3.5 3.5) scale(1,1)" xlink:href="#raphael-marker-open"></use></marker><marker refY="2.5" refX="2.5" orient="auto" markerWidth="5" markerHeight="5" id="raphael-marker-endblock55-obj109"><use stroke="none" fill="#000" stroke-width="1.0000" transform="rotate(180 2.5 2.5) scale(1,1)" xlink:href="#raphael-marker-block"></use></marker><marker refY="2.5" refX="2.5" orient="auto" markerWidth="5" markerHeight="5" id="raphael-marker-endblock55-obj115"><use stroke="none" fill="#000" stroke-width="1.0000" transform="rotate(180 2.5 2.5) scale(1,1)" xlink:href="#raphael-marker-block"></use></marker></defs><rect stroke-width="2" style="" stroke="#000000" fill="none" ry="0" rx="0" height="40" width="84" y="20" x="158"></rect><rect style="" stroke="none" fill="#ffffff" ry="0" rx="0" height="20" width="64" y="30" x="168"></rect><text fill="#000000" stroke="none" font-size="16px" font-family="Andale Mono, monospace" text-anchor="middle" y="40" x="200" style="text-anchor: middle; font-family: Andale Mono,monospace; font-size: 16px;"><tspan dy="5">Calling AE</tspan></text><rect stroke-width="2" style="" stroke="#000000" fill="none" ry="0" rx="0" height="40" width="84" y="650" x="158"></rect><rect style="" stroke="none" fill="#ffffff" ry="0" rx="0" height="20" width="64" y="660" x="168"></rect><text fill="#000000" stroke="none" font-size="16px" font-family="Andale Mono, monospace" text-anchor="middle" y="670" x="200" style="text-anchor: middle; font-family: Andale Mono,monospace; font-size: 16px;"><tspan dy="5">Calling AE</tspan></text><path stroke-width="2" d="M200,60L200,650" stroke="#000000" fill="none" style=""></path><rect stroke-width="2" style="" stroke="#000000" fill="none" ry="0" rx="0" height="40" width="79" y="20" x="628.5"></rect><rect style="" stroke="none" fill="#ffffff" ry="0" rx="0" height="20" width="59" y="30" x="638.5"></rect><text fill="#000000" stroke="none" font-size="16px" font-family="Andale Mono, monospace" text-anchor="middle" y="40" x="668" style="text-anchor: middle; font-family: Andale Mono,monospace; font-size: 16px;"><tspan dy="5">Called AE</tspan></text><rect stroke-width="2" style="" stroke="#000000" fill="none" ry="0" rx="0" height="40" width="79" y="650" x="628.5"></rect><rect style="" stroke="none" fill="#ffffff" ry="0" rx="0" height="20" width="59" y="660" x="638.5"></rect><text fill="#000000" stroke="none" font-size="16px" font-family="Andale Mono, monospace" text-anchor="middle" y="670" x="668" style="text-anchor: middle; font-family: Andale Mono,monospace; font-size: 16px;"><tspan dy="5">Called AE</tspan></text><path stroke-width="2" d="M668,60L668,650" stroke="#000000" fill="none" style=""></path><rect style="" stroke="none" fill="#ffffff" ry="0" rx="0" height="20" width="245" y="75" x="311.5"></rect><text fill="#000000" stroke="none" font-size="16px" font-family="Andale Mono, monospace" text-anchor="middle" y="85" x="434" style="text-anchor: middle; font-family: Andale Mono,monospace; font-size: 16px;"><tspan dy="5">A-ASSOCIATE-RQ (Request association)</tspan></text><path stroke-dasharray="0" marker-end="url(#raphael-marker-endblock55-obj79)" stroke-width="2" d="M200,100C200,100,612.7218206524849,100,663.0021401118574,100" stroke="#000000" fill="none" style=""></path><rect stroke-width="2" style="" stroke="#000000" fill="none" ry="0" rx="0" height="30" width="160" y="120" x="20"></rect><rect style="" stroke="none" fill="#ffffff" ry="0" rx="0" height="20" width="150" y="125" x="25"></rect><text fill="#000000" stroke="none" font-size="16px" font-family="Andale Mono, monospace" text-anchor="middle" y="135" x="100" style="text-anchor: middle; font-family: Andale Mono,monospace; font-size: 16px;"><tspan dy="5">Handshake Negociation</tspan></text><rect stroke-width="2" style="" stroke="#000000" fill="none" ry="0" rx="0" height="30" width="81" y="170" x="688"></rect><rect style="" stroke="none" fill="#ffffff" ry="0" rx="0" height="20" width="71" y="175" x="693"></rect><text fill="#000000" stroke="none" font-size="16px" font-family="Andale Mono, monospace" text-anchor="middle" y="185" x="728.5" style="text-anchor: middle; font-family: Andale Mono,monospace; font-size: 16px;"><tspan dy="5">Supported?</tspan></text><rect style="" stroke="none" fill="#ffffff" ry="0" rx="0" height="20" width="414" y="215" x="227"></rect><text fill="#000000" stroke="none" font-size="16px" font-family="Andale Mono, monospace" text-anchor="middle" y="225" x="434" style="text-anchor: middle; font-family: Andale Mono,monospace; font-size: 16px;"><tspan dy="5">A-ASSOCIATE-RJ( reject: AssociationRejected Exception is thrown )</tspan></text><path stroke-dasharray="6,2" marker-end="url(#raphael-marker-endopen77-obj88)" stroke-width="2" d="M668,240C668,240,235.1893699169159,240,202.01003938808572,240" stroke="#000000" fill="none" style=""></path><rect style="" stroke="none" fill="#ffffff" ry="0" rx="0" height="20" width="164" y="255" x="352"></rect><text fill="#000000" stroke="none" font-size="16px" font-family="Andale Mono, monospace" text-anchor="middle" y="265" x="434" style="text-anchor: middle; font-family: Andale Mono,monospace; font-size: 16px;"><tspan dy="5">A-ASSOCIATE-AC(Success)</tspan></text><path stroke-dasharray="0" marker-end="url(#raphael-marker-endblock55-obj91)" stroke-width="2" d="M668,280C668,280,255.2781793475151,280,204.99785988814256,280" stroke="#000000" fill="none" style=""></path><rect stroke-width="2" style="" stroke="#000000" fill="none" ry="0" rx="0" height="30" width="150" y="300" x="30"></rect><rect style="" stroke="none" fill="#ffffff" ry="0" rx="0" height="20" width="140" y="305" x="35"></rect><text fill="#000000" stroke="none" font-size="16px" font-family="Andale Mono, monospace" text-anchor="middle" y="315" x="105" style="text-anchor: middle; font-family: Andale Mono,monospace; font-size: 16px;"><tspan dy="5">Begin transfering Data</tspan></text><rect style="" stroke="none" fill="#ffffff" ry="0" rx="0" height="20" width="66" y="345" x="401.5"></rect><text fill="#000000" stroke="none" font-size="16px" font-family="Andale Mono, monospace" text-anchor="middle" y="355" x="434" style="text-anchor: middle; font-family: Andale Mono,monospace; font-size: 16px;"><tspan dy="5">P-DATA-TF</tspan></text><path stroke-dasharray="0" marker-end="url(#raphael-marker-endblock55-obj97)" stroke-width="2" d="M200,370C200,370,612.7218206524849,370,663.0021401118574,370" stroke="#000000" fill="none" style=""></path><rect stroke-width="2" style="" stroke="#000000" fill="none" ry="0" rx="0" height="30" width="227" y="390" x="688"></rect><rect style="" stroke="none" fill="#ffffff" ry="0" rx="0" height="20" width="217" y="395" x="693"></rect><text fill="#000000" stroke="none" font-size="16px" font-family="Andale Mono, monospace" text-anchor="middle" y="405" x="801.5" style="text-anchor: middle; font-family: Andale Mono,monospace; font-size: 16px;"><tspan dy="5">Perform data treatment operations</tspan></text><rect style="" stroke="none" fill="#ffffff" ry="0" rx="0" height="20" width="66" y="435" x="401.5"></rect><text fill="#000000" stroke="none" font-size="16px" font-family="Andale Mono, monospace" text-anchor="middle" y="445" x="434" style="text-anchor: middle; font-family: Andale Mono,monospace; font-size: 16px;"><tspan dy="5">P-DATA-TF</tspan></text><path stroke-dasharray="0" marker-end="url(#raphael-marker-endblock55-obj103)" stroke-width="2" d="M200,460C200,460,612.7218206524849,460,663.0021401118574,460" stroke="#000000" fill="none" style=""></path><rect style="" stroke="none" fill="#ffffff" ry="0" rx="0" height="20" width="448" y="475" x="210"></rect><text fill="#000000" stroke="none" font-size="16px" font-family="Andale Mono, monospace" text-anchor="middle" y="485" x="434" style="text-anchor: middle; font-family: Andale Mono,monospace; font-size: 16px;"><tspan dy="5">A-Abort ( anything goes wrong: AssociationAborted Exception is thrown)</tspan></text><path stroke-dasharray="6,2" marker-end="url(#raphael-marker-endopen77-obj106)" stroke-width="2" d="M668,500C668,500,235.1893699169159,500,202.01003938808572,500" stroke="#000000" fill="none" style=""></path><rect style="" stroke="none" fill="#ffffff" ry="0" rx="0" height="20" width="97" y="515" x="385.5"></rect><text fill="#000000" stroke="none" font-size="16px" font-family="Andale Mono, monospace" text-anchor="middle" y="525" x="434" style="text-anchor: middle; font-family: Andale Mono,monospace; font-size: 16px;"><tspan dy="5">A-RELEASE-RQ.</tspan></text><path stroke-dasharray="0" marker-end="url(#raphael-marker-endblock55-obj109)" stroke-width="2" d="M200,540C200,540,612.7218206524849,540,663.0021401118574,540" stroke="#000000" fill="none" style=""></path><rect stroke-width="2" style="" stroke="#000000" fill="none" ry="0" rx="0" height="30" width="231" y="560" x="688"></rect><rect style="" stroke="none" fill="#ffffff" ry="0" rx="0" height="20" width="221" y="565" x="693"></rect><text fill="#000000" stroke="none" font-size="16px" font-family="Andale Mono, monospace" text-anchor="middle" y="575" x="803.5" style="text-anchor: middle; font-family: Andale Mono,monospace; font-size: 16px;"><tspan dy="5">End transaction (Close association)</tspan></text><rect style="" stroke="none" fill="#ffffff" ry="0" rx="0" height="20" width="94" y="605" x="387"></rect><text fill="#000000" stroke="none" font-size="16px" font-family="Andale Mono, monospace" text-anchor="middle" y="615" x="434" style="text-anchor: middle; font-family: Andale Mono,monospace; font-size: 16px;"><tspan dy="5">A-RELEASE-RP.</tspan></text><path stroke-dasharray="0" marker-end="url(#raphael-marker-endblock55-obj115)" stroke-width="2" d="M668,630C668,630,255.2781793475151,630,204.99785988814256,630" stroke="#000000" fill="none" style=""></path></svg>
